<svg width="480" height="800" viewBox="0 0 480 800" fill="none" xmlns="http://www.w3.org/2000/svg">
<path d="M227.823 605.547C353.215 550.227 349.527 281.003 320.023 192.49C447.699 107.666 463.859 70.7858 478.611 -87.7986C493.363 -246.383 349.531 -290.639 327.403 -320.143C305.275 -349.647 320.023 -353.335 320.023 -445.536C320.023 -537.736 264.707 -552.488 238.891 -552.488C213.075 -552.488 157.755 -567.24 157.755 -463.976C157.755 -360.711 202.01 -275.887 261.018 -231.631C305.274 -198.439 356.907 -209.503 375.347 -87.7986C390.099 9.56482 344.611 38.823 320.023 41.2817V-76.7346C320.023 -132.055 294.211 -154.183 264.707 -154.183C235.203 -154.183 213.075 -117.303 213.075 -69.3586C213.075 -21.4145 187.259 19.1538 183.571 118.73C179.883 218.306 252.883 233.058 213.075 432.211C205.703 469.091 165.131 517.035 165.131 483.843C165.131 435.899 194.635 417.459 194.635 328.946C194.635 240.434 154.067 210.93 109.811 210.93C65.5544 210.93 43.4263 247.81 43.4263 288.378C43.4263 328.946 68.8487 363.548 76.6183 384.266C87.6824 413.771 76.6183 461.715 58.1783 461.715C43.4263 358.45 -11.8939 306.818 -11.8939 247.81C-11.8939 192.49 35.3431 195.025 87.6824 151.922C150.379 100.29 161.443 37.5935 161.443 -32.4785C161.443 -102.551 124.563 -146.807 124.563 -176.311C124.563 -205.815 139.315 -227.943 139.315 -253.759C139.315 -279.575 128.25 -331.207 72.9303 -331.207C17.6102 -331.207 6.54617 -257.447 6.54617 -205.815C6.54617 -128.367 58.1783 -54.6066 58.1783 -2.97424C58.1783 42.644 13.9222 74.4738 -11.8939 67.0977C-4.51785 -25.1025 -45.086 -76.7346 -45.086 -157.871C-45.086 -239.007 -4.51785 -246.383 -4.51785 -357.023C-4.51785 -430.783 -41.3979 -475.04 -45.086 -541.424C-48.774 -607.808 -78.2801 -641 -129.912 -641C-181.544 -641 -211.048 -604.12 -211.048 -534.048C-211.048 -471.352 -150.986 -434.471 -129.912 -375.463C-111.472 -323.831 -100.406 -227.943 -129.912 -227.943C-166.79 -227.943 -152.038 -353.335 -196.294 -408.655C-218.151 -435.976 -284.807 -438.16 -310.623 -397.591C-338.413 -353.92 -310.623 -286.951 -277.431 -253.759C-206.972 -183.299 -148.352 -113.615 -129.912 -10.3505C-115.16 72.2609 -118.847 134.711 -129.912 151.922C-145.893 139.629 -182.623 115.702 -199.982 67.0977C-218.423 15.4656 -211.046 -21.4145 -211.046 -69.3586V-69.3599C-211.046 -117.304 -211.046 -194.751 -295.87 -191.063C-380.694 -187.375 -391.102 -60.4726 -340.129 56.034C-288.495 174.05 -229.487 185.114 -144.662 306.818C-59.8383 428.523 -56.152 646.115 -67.216 668.243C-78.2783 660.867 -152.038 594.79 -152.038 483.843C-152.038 402.707 -174.167 384.266 -229.487 384.266C-284.807 384.266 -297.319 460.642 -255.303 557.603C-207.359 668.243 -104.091 771.507 -85.6547 830.516C-62.1431 905.769 -56.1506 915.34 -8.20651 915.34C39.7376 915.34 72.9262 889.524 72.9262 845.268C72.9262 801.012 72.9262 657.179 227.823 605.547Z" fill="#243E8D"/>
</svg>
