<svg width="338" height="800" viewBox="0 0 338 800" fill="none" xmlns="http://www.w3.org/2000/svg">
<path d="M204.822 627.188C250.531 599.059 288.579 530.472 256.072 502.027C210.559 462.203 -0.271683 543.952 0.000262845 831.997C0.0110082 843.379 5.68037 849.07 11.4482 831.997C28.2354 782.307 56.9029 718.215 204.822 627.188Z" fill="#243E8D"/>
<path d="M432.421 234.634C455.178 217.567 466.557 183.434 443.8 160.676C411.619 128.493 290.236 172.066 256.042 319.971C253.412 331.349 256.027 337.037 261.708 331.348C270.693 322.349 295.896 285.84 347.09 268.772C385.254 256.049 409.665 251.702 432.421 234.634Z" fill="#243E8D"/>
<path d="M449.455 388.237C467.968 366.64 488.745 318.928 460.835 302.902C421.367 280.238 341.372 325.654 312.925 484.953C310.872 496.45 317.6 495.106 324.296 490.641C341.361 479.266 415.32 428.062 449.455 388.237Z" fill="#243E8D"/>
<path d="M472.179 564.602C489.247 513.399 478.161 477.401 443.767 473.58C341.362 462.202 375.497 649.945 199.112 763.727C188.415 770.628 199.274 776.485 204.792 775.106C364.091 735.282 455.729 613.953 472.179 564.602Z" fill="#243E8D"/>
</svg>
