<svg width="347" height="477" viewBox="0 0 347 477" fill="none" xmlns="http://www.w3.org/2000/svg">
<path d="M343.816 308.19C356.555 385.763 312.173 555.235 285.637 568.178C259.1 581.12 130.153 550.677 91.5318 521.117C52.911 491.557 40.2483 437.238 68.1802 423.614C96.1121 409.991 148.284 474.424 158.406 434.918C168.528 395.413 77.1807 357.001 37.0943 335.069C-2.99223 313.138 -45.4571 250.885 -11.9388 234.537C21.5795 218.189 80.1225 270.872 99.063 252.992C118.003 235.112 32.1507 133.525 17.1683 102.806C2.18599 72.088 -14.6665 19.8121 17.4551 4.14528C49.5768 -11.5215 78.4644 26.7253 91.9726 57.6796C105.395 88.4381 125.401 190.021 150.54 177.76C175.679 165.499 147.826 101.304 171.568 89.7243C195.31 78.1445 217.755 104.869 224.559 141.659C233.001 187.301 209.65 313.132 232.504 320.999C255.357 328.865 264.463 251.83 284.015 242.293C303.567 232.757 335.605 258.184 343.816 308.19Z" fill="#A7EEFC"/>
</svg>
