<svg width="101" height="78" viewBox="0 0 101 78" fill="none" xmlns="http://www.w3.org/2000/svg">
<path d="M71.4259 78C53.1533 78 53.1532 52.5644 44.8475 52.5644C35.7112 52.5644 36.5417 62.7386 29.0666 68.6736C21.5915 74.6086 6.58696 68.3912 6.58696 58.4673C6.58696 46.5973 25.7443 44.0857 25.7443 36.455C25.7443 26.9486 -2.18864e-10 27.8364 0 10.9673C0 2.48872 6.58696 -1.46262 14.9304 2.97663C20.9948 6.20327 32.2949 17.4662 36.4478 14.0748C40.6007 10.6833 31.4445 -17 51.3783 -17C76.2956 -17 53.1197 13.0204 65.6118 17.8022C72.2565 20.3457 94.682 5.08428 100.496 21.1936C103.862 30.52 89.5646 36.634 81.3928 38.1507C72.2565 39.8464 72.1789 45.7784 76.4093 52.5644C82.2234 61.8907 84.7151 78 71.4259 78Z" fill="#F85B54"/>
</svg>
