<svg width="264" height="325" viewBox="0 0 264 325" fill="none" xmlns="http://www.w3.org/2000/svg">
<path d="M167.476 291.283C148.605 272.412 115.582 296.001 115.582 310.153C122.658 329.024 143.887 324.306 155.681 321.948C167.476 319.589 186.346 310.153 167.476 291.283Z" fill="#A7EEFC"/>
<path d="M273.622 270.052C259.469 270.052 250.034 279.487 250.034 291.281C250.034 312.039 265.759 315.656 273.622 314.869C279.126 315.656 291.077 312.982 294.852 295.999C299.569 274.769 287.775 270.052 273.622 270.052Z" fill="#A7EEFC"/>
<path d="M174.552 -29.5182C160.399 -29.5182 150.964 -20.0829 150.964 -8.28881C150.964 12.4688 166.689 16.0857 174.552 15.2994C180.056 16.0857 192.007 13.4123 195.781 -3.57117C200.499 -24.8005 188.705 -29.5182 174.552 -29.5182Z" fill="#A7EEFC"/>
<path d="M73.3333 41.7423C81.5955 51.3139 110.512 43.6571 116.71 28.3421C122.907 13.0272 104.317 5.36985 91.9228 9.19848C78.2058 13.4356 65.0711 32.1707 73.3333 41.7423Z" fill="#A7EEFC"/>
<path d="M210.789 192.473C192.322 197.095 180.105 187.755 175.387 173.603C173.142 166.865 175.407 154.732 182.483 150.013C189.559 145.295 198.975 152.373 208.411 152.373C217.846 152.373 236.736 135.861 241.454 152.373C246.172 168.885 229.64 187.755 210.789 192.473Z" fill="#A7EEFC"/>
<path d="M141.529 75.1952C127.376 70.4775 108.506 84.6304 108.506 98.7833C108.506 106.646 112.28 122.371 127.376 122.371C146.247 122.371 150.964 110.577 153.323 98.7833C155.682 86.9898 155.682 79.9128 141.529 75.1952Z" fill="#A7EEFC"/>
<path d="M257.112 83.7051C271.265 69.5521 261.83 55.3992 252.395 48.3228C224.089 41.2463 212.295 60.1169 217.012 74.2698C221.73 88.4227 242.959 97.858 257.112 83.7051Z" fill="#A7EEFC"/>
<path d="M61.3293 133.388C61.3293 140.464 35.3823 164.052 21.2294 164.052C14.1529 165.524 0 159.335 0 147.541C0 135.747 4.71764 131.029 28.3058 123.952C51.894 116.876 61.3293 126.311 61.3293 133.388Z" fill="#A7EEFC"/>
<path d="M113.222 227.593C114.591 220.65 110.863 211.081 89.634 211.081C69.6758 211.081 60.1415 227.76 59.0713 239.557C59.1733 258.597 82.0714 259.73 87.2752 251.181C94.3517 239.557 110.863 239.557 113.222 227.593Z" fill="#A7EEFC"/>
</svg>
