<svg width="233" height="52" viewBox="0 0 233 52" fill="none" xmlns="http://www.w3.org/2000/svg">
<path fill-rule="evenodd" clip-rule="evenodd" d="M181.265 51.9048C173.6 51.9048 169.287 47.5128 169.287 39.1282V20.3626H162.101V12.7766H166.493C168.968 12.7766 170.086 11.5788 170.086 8.38462V0H177.273V12.7766H186.057V20.3626H177.273V38.3297C177.273 42.3223 179.109 44.3187 182.863 44.3187C184.06 44.3187 185.098 44.0791 185.977 43.7597L187.254 43.1209V50.707L185.578 51.3458C184.539 51.6652 183.102 51.9048 181.265 51.9048ZM27.8689 41.5238C28.907 40.7253 29.8652 39.767 30.7436 38.7289L36.3333 43.9194C35.1355 45.4366 33.778 46.7143 32.181 47.9121C29.3861 49.9084 25.3934 51.9048 19.9634 51.9048C8.78388 51.9048 0 43.1209 0 31.9414C0 20.7619 8.78388 11.978 19.9634 11.978C25.3934 11.978 29.3861 13.8945 32.0212 15.811C33.5385 16.9289 34.896 18.2066 35.9341 19.5641L30.3443 24.7546C29.6256 23.7963 28.7472 22.9179 27.7092 22.1993C25.8725 20.9216 23.3971 19.5641 19.9634 19.5641C13.1758 19.5641 7.98535 24.6747 7.98535 31.9414C7.98535 39.2081 13.1758 44.3187 19.9634 44.3187C23.3971 44.3187 26.0322 43.041 27.8689 41.5238ZM102.02 51.9048C93.2358 51.9048 86.8475 45.5963 86.8475 35.1355V12.7766H94.8328V35.1355C94.8328 40.8051 98.4262 44.3187 103.617 44.3187C109.606 44.3187 113.998 39.9267 113.998 33.5385V12.7766H121.983V51.1062H113.998V45.5165C113.119 46.7143 112.161 47.7524 110.963 48.7106C108.967 50.3077 106.092 51.9048 102.02 51.9048ZM128.287 44.7179C129.325 46.0755 130.603 47.2733 132.12 48.3114C134.676 50.148 138.349 51.9048 143.46 51.9048C152.723 51.9048 158.232 46.315 158.232 39.9267C158.232 31.8751 151.069 29.7227 145.24 27.9712C141.241 26.7696 137.87 25.7568 137.87 23.1575C137.87 21.1612 139.786 19.1648 143.859 19.1648C146.414 19.1648 148.49 19.8835 150.008 20.7619C150.886 21.241 151.605 21.8 152.243 22.359L157.434 17.1685C156.555 16.2103 155.438 15.3319 154.08 14.6132C151.844 13.3355 148.41 11.978 143.859 11.978C135.155 11.978 129.884 17.1685 129.884 23.1575C129.884 31.2662 137.065 33.4052 142.898 35.1428C146.888 36.3313 150.247 37.332 150.247 39.9267C150.247 42.4022 147.931 44.7179 143.46 44.7179C140.345 44.7179 138.029 43.4403 136.193 42.1626C135.155 41.444 134.276 40.5656 133.478 39.5275L128.287 44.7179ZM59.3821 51.9044C48.2026 51.9044 39.4187 43.1205 39.4187 31.941C39.4187 20.7615 48.2026 11.9777 59.3821 11.9777C70.5615 11.9777 79.3454 20.7615 79.3454 31.941C79.3454 43.1205 70.5615 51.9044 59.3821 51.9044ZM47.404 31.941C47.404 39.2077 52.5945 44.3183 59.3821 44.3183C66.1696 44.3183 71.3601 39.2077 71.3601 31.941C71.3601 24.6744 66.1696 19.5637 59.3821 19.5637C52.5945 19.5637 47.404 24.6744 47.404 31.941Z" fill="white"/>
<path d="M232.317 32.0366C232.317 20.8572 223.533 12.0733 212.354 12.0733C201.174 12.0733 192.39 20.8571 192.39 32.0366C192.39 43.2161 201.174 52 212.354 52C223.533 52 232.317 43.2161 232.317 32.0366ZM212.354 19.6593C219.141 19.6593 224.332 24.77 224.332 32.0366C224.332 39.3033 219.141 44.4139 212.354 44.4139C205.566 44.4139 200.376 39.3033 200.376 32.0366C200.376 24.77 205.566 19.6593 212.354 19.6593Z" fill="#F5ACCE"/>
<path d="M213.339 12.0944C213.013 12.0793 212.685 12.0716 212.355 12.0716C212.024 12.0716 211.696 12.0793 211.37 12.0944L213.339 12.0944Z" fill="white"/>
<path d="M193.32 38.1713C195.857 46.267 203.324 51.9983 212.355 51.9983C221.385 51.9983 228.852 46.267 231.389 38.1713H222.898C220.902 42.0157 217.003 44.4123 212.355 44.4123C207.706 44.4123 203.807 42.0157 201.811 38.1713H193.32Z" fill="white"/>
</svg>
