<svg width="1439" height="250" viewBox="0 0 1439 250" fill="none" xmlns="http://www.w3.org/2000/svg">
<mask id="mask0" mask-type="alpha" maskUnits="userSpaceOnUse" x="0" y="0" width="1439" height="250">
<rect width="1439" height="250" fill="#F5ACCE"/>
</mask>
<g mask="url(#mask0)">
<path opacity="0.9" fill-rule="evenodd" clip-rule="evenodd" d="M102.333 455.977C74.0624 455.977 45.7906 449.885 23.9801 445.185C2.39319 440.534 -12.8645 437.246 -15.5276 442.579C-20.3169 452.168 49.4092 492.995 102.333 512.249C133.077 523.434 190.799 514.195 247.73 505.082C299.919 496.728 351.442 488.481 380.909 496.171C396.79 500.315 415.433 509.402 437.246 520.034C486.993 544.281 553.222 576.562 640.743 576.562C714.326 576.562 764.117 546.354 809.905 518.574C842.458 498.825 872.987 480.302 908.605 474.735C920.955 472.804 942.725 476.736 970.16 481.69C1024.61 491.523 1101.37 505.385 1171.11 485.452C1246.12 464.015 1310.4 380.945 1310.4 300.554C1310.4 292.103 1308.18 285.318 1304.57 280.345C1308.13 276.92 1310.4 271.439 1310.4 263.243C1310.4 150.455 1173.83 40.999 1074.74 40.9989C1006.6 40.9989 961.109 64.2935 924.821 82.8748C899.54 95.8204 878.726 106.478 857.833 105.377C839.465 104.408 820.293 91.7341 797.409 76.6052C756.901 49.8262 704.761 15.3569 624.855 24.5043C571.729 30.5861 542.693 45.6103 517.265 58.7676C497.832 68.8226 480.507 77.7873 456.147 80.8374C421.883 85.1275 380.009 77.2198 340.262 69.7138C305.455 63.1407 272.279 56.8756 247.274 59.3803C193.716 64.7451 116.299 132.205 124.091 145.217C128.015 151.772 144.736 141.665 165.185 129.305C186.572 116.377 212.037 100.985 231.203 99.6142C259.374 97.5986 285.323 111.805 316.453 128.848C344.507 144.206 376.768 161.868 418.656 172.039C476.281 186.031 512.709 170.887 550.102 155.342C570.053 147.049 590.278 138.641 614.144 134.483C645.338 129.049 664.855 142.192 688.35 161.717C663.857 168.498 641.618 180.29 619.268 192.14C588.643 208.378 557.808 224.727 520.679 228.45C478.907 232.639 444.378 216.49 409.181 200.028C376.713 184.843 343.676 169.392 303.86 169.392C249.519 169.392 184.846 224.651 133.146 268.825C105.899 292.106 82.2553 312.308 65.6261 319.72C37.1124 332.429 -7.33812 325.395 -39.4319 320.317C-61.5696 316.814 -77.8277 314.241 -78.9204 319.72C-82.6639 338.49 46.8887 373.388 89.7172 362.674C107.65 358.188 135.457 345.689 165.945 331.984C214.94 309.961 270.86 284.825 303.86 284.825C330.081 284.825 355.661 300.281 384.372 317.629C414.28 335.701 447.587 355.826 488.558 362.674C529.958 369.594 564.244 355.816 598.751 341.948C631.176 328.918 663.797 315.809 702.7 319.72C735.848 323.053 752.765 332.886 771.05 343.513C779.455 348.398 788.149 353.451 798.842 358.119C774.447 367.878 758.425 379.81 743.456 390.958C718.083 409.855 695.732 426.501 640.743 426.501C598.971 426.501 556.666 413.335 512.039 399.448C462.23 383.948 409.529 367.547 351.448 367.547C287.433 367.547 232.521 397.59 186.709 422.653C153.923 440.59 125.798 455.977 102.333 455.977ZM1036.37 342.903C1050.07 344.443 1063.06 346.114 1075.26 347.685C1102.28 351.161 1125.49 354.148 1144.33 354.148C1180.63 354.148 1211.26 334.035 1233.24 313.463C1208.01 304.897 1173.48 299.148 1133.66 306.277C1105.8 311.266 1079.42 323.303 1051.49 336.046C1046.5 338.321 1041.47 340.619 1036.37 342.903ZM1208.84 216.091C1167.3 183.987 1110.52 156.05 1064.03 169.354C1051.12 173.05 1035.77 182.311 1017.82 193.14C1005.83 200.374 992.678 208.307 978.318 215.75C1018.72 203.614 1068.91 188.58 1144.37 198.899C1168.87 202.251 1190.3 208.349 1208.84 216.091Z" fill="#FFA126"/>
<path d="M373.333 135.382C386.224 140.574 397.235 122.536 394.348 115.755C387.108 108.156 377.899 114.747 372.729 118.283C367.559 121.819 360.441 130.189 373.333 135.382Z" fill="#F85B54"/>
<path d="M302.9 109.772C295.53 109.772 290.616 114.685 290.616 120.827C290.616 131.637 298.805 133.52 302.9 133.111C305.766 133.52 311.99 132.128 313.955 123.284C316.412 112.228 310.27 109.772 302.9 109.772Z" fill="#F85B54"/>
<path d="M409.392 161.655C404.229 155.424 386.159 160.408 382.286 170.378C378.412 180.347 390.03 185.331 397.775 182.839C406.347 180.081 414.555 167.885 409.392 161.655Z" fill="#F85B54"/>
<path d="M250.189 146.881C254.492 151.866 269.55 147.879 272.778 139.903C276.005 131.928 266.324 127.94 259.87 129.934C252.727 132.14 245.887 141.897 250.189 146.881Z" fill="#F85B54"/>
<path d="M321.77 225.376C312.153 227.783 305.791 222.919 303.334 215.549C302.164 212.04 303.344 205.722 307.029 203.265C310.714 200.808 315.618 204.493 320.531 204.493C325.445 204.493 335.282 195.895 337.739 204.493C340.196 213.092 331.587 222.919 321.77 225.376Z" fill="#F85B54"/>
<path d="M396.256 212.956C388.886 210.5 379.059 217.87 379.059 225.24C379.059 229.335 381.024 237.524 388.886 237.524C398.713 237.524 401.17 231.382 402.398 225.24C403.627 219.098 403.627 215.413 396.256 212.956Z" fill="#F85B54"/>
<path d="M285.703 164.302C278.332 161.845 268.505 169.216 268.505 176.586C268.505 180.68 270.471 188.869 278.332 188.869C288.159 188.869 290.616 182.728 291.845 176.586C293.073 170.444 293.073 166.759 285.703 164.302Z" fill="#F85B54"/>
<path d="M345.894 168.734C353.264 161.364 348.351 153.993 343.437 150.308C328.697 146.623 322.555 156.45 325.012 163.82C327.469 171.191 338.524 176.104 345.894 168.734Z" fill="#F85B54"/>
<path d="M243.938 194.606C243.938 198.291 230.426 210.575 223.055 210.575C219.37 211.341 212 208.118 212 201.977C212 195.835 214.457 193.378 226.741 189.693C239.024 186.008 243.938 190.921 243.938 194.606Z" fill="#F85B54"/>
<path d="M270.962 243.665C271.675 240.049 269.734 235.066 258.678 235.066C248.285 235.066 243.32 243.752 242.763 249.895C242.816 259.81 254.74 260.4 257.45 255.949C261.135 249.895 269.734 249.895 270.962 243.665Z" fill="#F85B54"/>
</g>
</svg>
