<svg width="630" height="377" viewBox="0 0 630 377" fill="none" xmlns="http://www.w3.org/2000/svg">
<path fill-rule="evenodd" clip-rule="evenodd" d="M523.904 377C590.867 242.785 662.397 62.1422 614.27 41.5227C579.45 26.6046 546.981 131.394 522.277 211.122C507.729 258.075 495.874 296.336 487.818 296.336C477.797 296.336 472.409 259.809 466.601 220.435C459.811 174.405 452.447 124.485 436.438 124.485C400.316 124.485 413.026 199.871 425.862 276.012C431.958 312.168 438.082 348.494 439.021 377H523.904ZM366.145 377C367.466 365.831 368.526 354.697 369.257 343.743C373.756 276.27 325.793 -3.90923 292.202 0.0413659C271.575 2.46734 292.674 97.2572 309.285 171.888C319.725 218.791 328.392 257.731 323.817 260.781C319.086 263.934 311.209 242.868 301.316 216.409C286.416 176.562 266.943 124.485 246.757 124.485C218.721 124.485 249.69 209.099 272.336 270.973C276.823 283.232 280.983 294.598 284.293 304.237C293.57 331.256 301.916 356.183 306.551 377H366.145ZM272.129 377C269.809 369.272 267.43 361.104 264.992 352.735C248.356 295.633 228.995 229.176 207.238 229.176C181.513 229.176 199.22 302.94 222.506 377H272.129ZM198.225 377C172.941 227.051 109.672 90.1075 68.9222 116.584C44.5125 132.444 76.6329 195.548 101.509 244.42C116.91 274.678 129.535 299.48 124.248 304.237C120.629 307.493 108.005 288.771 91.9044 264.891C64.0284 223.547 25.7286 166.744 5.68878 181.769C-15.3371 201.787 25.5342 255.787 69.1724 313.443C85.2137 334.637 101.629 356.325 115.481 377H198.225ZM75.8543 377H27.6177C28.2271 372.823 30.0621 368.966 33.3516 365.471C43.6082 354.577 59.2877 362.136 75.8543 377Z" fill="#F5ACCE"/>
</svg>
